<svg width="247" height="42" viewBox="0 0 247 42" fill="none" xmlns="http://www.w3.org/2000/svg">
<path d="M0 5.96484V13.3382L27.0113 28.9328V21.5594L0 5.96484Z" fill="#00984A"/>
<path d="M14.3438 0V7.3722L27.0118 14.6855V7.31334L14.3438 0Z" fill="#00984A"/>
<path d="M14.3433 36.336V28.9626L0 20.6814V28.0548L14.3433 36.336Z" fill="#00984A"/>
<path d="M43 7.03735H47.8167V28.933H43V7.03735Z" fill="black"/>
<path d="M53.293 7.03735H57.735L67.9941 20.5196V7.03735H72.7484V28.933H68.651L58.0472 15.0136V28.933H53.293V7.03735Z" fill="black"/>
<path d="M78.0059 7.03735H94.6776V11.417H82.8226V16.0776H93.2702V20.456H82.8226V28.933H78.0059V7.03735Z" fill="black"/>
<path d="M97.5586 18.0481V17.9857C97.5586 11.7603 102.469 6.6626 109.225 6.6626C115.981 6.6626 120.83 11.6991 120.83 17.9232V17.9857C120.83 24.2098 115.92 29.3087 109.164 29.3087C102.407 29.3087 97.5586 24.2723 97.5586 18.0481ZM115.794 18.0481V17.9857C115.794 14.2317 113.042 11.1046 109.163 11.1046C105.284 11.1046 102.594 14.1705 102.594 17.9232V17.9857C102.594 21.7384 105.346 24.8667 109.224 24.8667C113.104 24.8667 115.794 21.8021 115.794 18.0481Z" fill="black"/>
<path d="M125.119 7.03735H135.128C137.912 7.03735 140.07 7.81913 141.509 9.25898C142.729 10.4791 143.386 12.1987 143.386 14.263V14.3255C143.386 17.8597 141.477 20.0813 138.694 21.1128L144.043 28.933H138.413L133.721 21.927H129.937V28.933H125.12V7.03735H125.119ZM134.815 17.6723C137.162 17.6723 138.507 16.421 138.507 14.5753V14.5128C138.507 12.4485 137.068 11.3845 134.721 11.3845H129.936V17.6711H134.815V17.6723Z" fill="black"/>
<path d="M147.736 7.03735H152.929L158.684 16.2961L164.439 7.03735H169.631V28.933H164.845V14.6389L158.684 23.9913H158.559L152.459 14.7326V28.933H147.736V7.03735Z" fill="black"/>
<path d="M182.397 6.8811H186.837L196.221 28.9328H191.185L189.183 24.0224H179.925L177.923 28.9328H173.012L182.397 6.8811ZM187.464 19.7677L184.555 12.6669L181.646 19.7677H187.464Z" fill="black"/>
<path d="M201.887 11.4794H195.225V7.03735H213.366V11.4794H206.703V28.933H201.886V11.4794H201.887Z" fill="black"/>
<path d="M217.279 7.03735H222.097V28.933H217.279V7.03735Z" fill="black"/>
<path d="M226.602 18.0481V17.9857C226.602 11.7603 231.292 6.6626 238.018 6.6626C242.147 6.6626 244.618 8.03881 246.65 10.0407L243.584 13.5748C241.896 12.0425 240.175 11.1034 237.986 11.1034C234.296 11.1034 231.637 14.1693 231.637 17.922V17.9845C231.637 21.7372 234.233 24.8655 237.986 24.8655C240.489 24.8655 242.021 23.8652 243.742 22.3004L246.808 25.3975C244.555 27.8064 242.053 29.3075 237.83 29.3075C231.386 29.3087 226.602 24.3347 226.602 18.0481Z" fill="black"/>
</svg>
