<svg width="247" height="42" viewBox="0 0 247 42" fill="none" xmlns="http://www.w3.org/2000/svg">
<path d="M0 5.96481V13.3382L27.0113 28.9328V21.5594L0 5.96481Z" fill="#00984A"/>
<path d="M14.3433 0V7.3722L27.0113 14.6855V7.31334L14.3433 0Z" fill="#00984A"/>
<path d="M14.3433 36.3361V28.9627L0 20.6814V28.0548L14.3433 36.3361Z" fill="#00984A"/>
<path d="M43 7.03725H47.8167V28.9329H43V7.03725Z" fill="black"/>
<path d="M53.2925 7.03725H57.7345L67.9936 20.5195V7.03725H72.7479V28.9329H68.6505L58.0468 15.0135V28.9329H53.2925V7.03725Z" fill="black"/>
<path d="M78.0068 7.03725H94.6786V11.4169H82.8236V16.0775H93.2712V20.4559H82.8236V28.9329H78.0068V7.03725Z" fill="black"/>
<path d="M97.5581 18.0481V17.9856C97.5581 11.7603 102.468 6.66257 109.225 6.66257C115.981 6.66257 120.83 11.699 120.83 17.9232V17.9856C120.83 24.2098 115.92 29.3087 109.163 29.3087C102.406 29.3087 97.5581 24.2722 97.5581 18.0481ZM115.793 18.0481V17.9856C115.793 14.2317 113.041 11.1046 109.162 11.1046C105.283 11.1046 102.593 14.1705 102.593 17.9232V17.9856C102.593 21.7384 105.346 24.8667 109.223 24.8667C113.103 24.8667 115.793 21.802 115.793 18.0481Z" fill="black"/>
<path d="M125.118 7.03725H135.127C137.911 7.03725 140.069 7.81903 141.508 9.25888C142.728 10.479 143.385 12.1986 143.385 14.2629V14.3254C143.385 17.8596 141.477 20.0812 138.693 21.1127L144.042 28.9329H138.412L133.72 21.9269H129.936V28.9329H125.119V7.03725H125.118ZM134.814 17.6722C137.161 17.6722 138.506 16.4209 138.506 14.5752V14.5127C138.506 12.4484 137.067 11.3844 134.72 11.3844H129.935V17.671H134.814V17.6722Z" fill="black"/>
<path d="M147.736 7.03725H152.928L158.683 16.296L164.439 7.03725H169.63V28.9329H164.845V14.6388L158.683 23.9912H158.558L152.459 14.7325V28.9329H147.736V7.03725Z" fill="black"/>
<path d="M182.397 6.88099H186.837L196.221 28.9327H191.185L189.183 24.0223H179.925L177.923 28.9327H173.012L182.397 6.88099ZM187.464 19.7676L184.555 12.6668L181.646 19.7676H187.464Z" fill="black"/>
<path d="M201.887 11.4793H195.225V7.03725H213.366V11.4793H206.703V28.9329H201.886V11.4793H201.887Z" fill="black"/>
<path d="M217.278 7.03725H222.096V28.9329H217.278V7.03725Z" fill="black"/>
<path d="M226.601 18.0481V17.9856C226.601 11.7603 231.292 6.66257 238.018 6.66257C242.146 6.66257 244.618 8.03878 246.65 10.0406L243.584 13.5748C241.895 12.0425 240.175 11.1034 237.985 11.1034C234.295 11.1034 231.636 14.1692 231.636 17.922V17.9844C231.636 21.7372 234.233 24.8655 237.985 24.8655C240.488 24.8655 242.02 23.8651 243.741 22.3004L246.807 25.3975C244.554 27.8064 242.053 29.3075 237.829 29.3075C231.385 29.3087 226.601 24.3347 226.601 18.0481Z" fill="black"/>
<path d="M156.776 34.3545H154V33.8076H160.146V34.3545H157.369V41.7755H156.776V34.3545Z" fill="black"/>
<path d="M161.943 33.8088H167.611V34.3557H162.534V37.4858H167.098V38.0326H162.534V41.2311H167.668V41.7779H161.943V33.8088Z" fill="black"/>
<path d="M169.212 37.8146V37.7918C169.212 35.5384 170.897 33.6711 173.196 33.6711C174.62 33.6711 175.473 34.1952 176.293 34.946L175.872 35.3789C175.178 34.7073 174.381 34.206 173.186 34.206C171.273 34.206 169.828 35.7651 169.828 37.769V37.7918C169.828 39.8066 171.296 41.3776 173.196 41.3776C174.345 41.3776 175.131 40.9339 175.94 40.1364L176.338 40.5237C175.495 41.3548 174.585 41.9125 173.174 41.9125C170.897 41.9125 169.212 40.1028 169.212 37.8146Z" fill="black"/>
<path d="M177.962 33.8088H178.555V37.4966H183.654V33.8088H184.247V41.7767H183.654V38.0434H178.555V41.7767H177.962V33.8088Z" fill="black"/>
<path d="M186.61 33.8088H187.168L192.665 40.7406V33.8088H193.235V41.7767H192.791L187.18 34.6975V41.7767H186.61V33.8088Z" fill="black"/>
<path d="M195.248 37.8146V37.7918C195.248 35.6176 196.852 33.6711 199.265 33.6711C201.678 33.6711 203.261 35.5948 203.261 37.769V37.7918C203.261 39.9661 201.656 41.9125 199.244 41.9125C196.829 41.9125 195.248 39.9889 195.248 37.8146ZM202.646 37.8146V37.7918C202.646 35.8226 201.211 34.206 199.244 34.206C197.274 34.206 195.863 35.7998 195.863 37.769V37.7918C195.863 39.761 197.297 41.3776 199.265 41.3776C201.234 41.3776 202.646 39.7838 202.646 37.8146Z" fill="black"/>
<path d="M205.272 33.8088H205.864V41.2299H210.543V41.7767H205.272V33.8088Z" fill="black"/>
<path d="M211.507 37.8146V37.7918C211.507 35.6176 213.111 33.6711 215.524 33.6711C217.937 33.6711 219.52 35.5948 219.52 37.769V37.7918C219.52 39.9661 217.916 41.9125 215.503 41.9125C213.09 41.9125 211.507 39.9889 211.507 37.8146ZM218.905 37.8146V37.7918C218.905 35.8226 217.471 34.206 215.503 34.206C213.534 34.206 212.122 35.7998 212.122 37.769V37.7918C212.122 39.761 213.556 41.3776 215.524 41.3776C217.495 41.3776 218.905 39.7838 218.905 37.8146Z" fill="black"/>
<path d="M221.179 37.8146V37.7918C221.179 35.6403 222.738 33.6711 225.118 33.6711C226.415 33.6711 227.235 34.0573 228.032 34.7181L227.644 35.1618C227.018 34.615 226.29 34.206 225.084 34.206C223.15 34.206 221.794 35.8454 221.794 37.769V37.7918C221.794 39.8521 223.08 41.3884 225.209 41.3884C226.222 41.3884 227.166 40.9675 227.746 40.4782V38.19H225.083V37.6431H228.315V40.7168C227.598 41.3548 226.482 41.9125 225.185 41.9125C222.67 41.9125 221.179 40.0572 221.179 37.8146Z" fill="black"/>
<path d="M230.533 33.8088H231.124V41.7767H230.533V33.8088Z" fill="black"/>
<path d="M233.57 33.8088H239.239V34.3557H234.162V37.4858H238.727V38.0326H234.162V41.2311H239.296V41.7779H233.571V33.8088H233.57Z" fill="black"/>
<path d="M240.683 40.6145L241.07 40.1708C241.945 40.9791 242.754 41.3545 243.927 41.3545C245.121 41.3545 245.941 40.6829 245.941 39.7727V39.7499C245.941 38.908 245.498 38.4187 243.688 38.0541C241.776 37.6668 241.002 37.018 241.002 35.8115V35.7887C241.002 34.605 242.083 33.6936 243.563 33.6936C244.724 33.6936 245.487 34.0126 246.294 34.6614L245.919 35.1279C245.168 34.4791 244.416 34.2285 243.54 34.2285C242.368 34.2285 241.594 34.9001 241.594 35.7311V35.7539C241.594 36.5958 242.026 37.1079 243.916 37.4953C245.76 37.8706 246.534 38.5314 246.534 39.6923V39.7151C246.534 41.0007 245.429 41.8894 243.893 41.8894C242.617 41.8894 241.638 41.4684 240.683 40.6145Z" fill="black"/>
</svg>
